<svg xmlns="http://www.w3.org/2000/svg" width="1200" height="630" viewBox="0 0 1200 630" role="img" aria-label="Number Hunt preview">
  <defs>
    <linearGradient id="bg" x1="0" y1="0" x2="1" y2="1">
      <stop offset="0%" stop-color="#16132b"/>
      <stop offset="100%" stop-color="#2b2250"/>
    </linearGradient>
  </defs>
  <rect width="1200" height="630" fill="url(#bg)"/>
  <circle cx="1020" cy="120" r="180" fill="#7dff8e" opacity="0.12"/>
  <circle cx="150" cy="520" r="220" fill="#ffe45e" opacity="0.08"/>
  <rect x="84" y="86" width="1032" height="458" rx="36" fill="#1e1a38" stroke="#4e4680" stroke-width="2"/>
  <text x="120" y="160" fill="#7dff8e" font-family="Arial, sans-serif" font-size="26" font-weight="700" letter-spacing="2">FOCUS AND SPEED GAME</text>
  <text x="120" y="252" fill="#ffffff" font-family="Arial, sans-serif" font-size="72" font-weight="700">Number Hunt</text>
  <text x="120" y="310" fill="#d8d1ff" font-family="Arial, sans-serif" font-size="28">Spot the numbers in order as fast as you can.</text>
  <g transform="translate(760 150)">
    <rect width="270" height="270" rx="28" fill="#15112b" stroke="#574b91"/>
    <g fill="#ffffff" font-family="Arial, sans-serif" font-size="36" font-weight="700" text-anchor="middle">
      <text x="60" y="76">12</text>
      <text x="144" y="76" fill="#7dff8e">13</text>
      <text x="224" y="76">21</text>
      <text x="56" y="158">8</text>
      <text x="144" y="158">14</text>
      <text x="228" y="158">3</text>
      <text x="60" y="236">19</text>
      <text x="144" y="236">15</text>
      <text x="224" y="236">27</text>
    </g>
  </g>
  <rect x="120" y="368" width="180" height="52" rx="26" fill="#7dff8e"/>
  <text x="210" y="402" text-anchor="middle" fill="#1a1633" font-family="Arial, sans-serif" font-size="24" font-weight="700">Play now</text>
  <rect x="318" y="368" width="190" height="52" rx="26" fill="#2a254c" stroke="#5d5598"/>
  <text x="413" y="402" text-anchor="middle" fill="#ffffff" font-family="Arial, sans-serif" font-size="24" font-weight="700">Focus hub</text>
  <text x="120" y="492" fill="#9f95db" font-family="Arial, sans-serif" font-size="22">Live at numberhuntgame.com</text>
</svg>
